<svg xmlns="http://www.w3.org/2000/svg" height="20" width="20"><path fill="currentColor" d="M4.938 14.062q1.124-.791 2.406-1.177Q8.625 12.5 10 12.5q1.375 0 2.656.385 1.282.386 2.406 1.177.73-.854 1.084-1.895.354-1.042.354-2.167 0-2.708-1.896-4.604T10 3.5q-2.708 0-4.604 1.896T3.5 10q0 1.125.354 2.167.354 1.041 1.084 1.895ZM10 11.5q-1.25 0-2.125-.875T7 8.5q0-1.25.875-2.125T10 5.5q1.25 0 2.125.875T13 8.5q0 1.25-.875 2.125T10 11.5Zm0 6.5q-1.646 0-3.104-.625-1.458-.625-2.552-1.719t-1.719-2.552Q2 11.646 2 10q0-1.667.625-3.115.625-1.447 1.719-2.541Q5.438 3.25 6.896 2.625T10 2q1.667 0 3.115.625 1.447.625 2.541 1.719 1.094 1.094 1.719 2.541Q18 8.333 18 10q0 1.646-.625 3.104-.625 1.458-1.719 2.552t-2.541 1.719Q11.667 18 10 18Zm0-1.5q1.083 0 2.083-.344 1-.344 1.875-1.01-.896-.563-1.896-.854Q11.062 14 10 14q-1.062 0-2.073.281-1.01.281-1.885.865.875.666 1.875 1.01T10 16.5Zm0-6.5q.625 0 1.062-.438.438-.437.438-1.062t-.438-1.062Q10.625 7 10 7t-1.062.438Q8.5 7.875 8.5 8.5t.438 1.062Q9.375 10 10 10Zm0-1.5Zm0 6.646Z"/></svg>