<svg xmlns="http://www.w3.org/2000/svg" height="20" width="20"><path fill="currentColor" d="M10 17q-1.458 0-2.729-.552-1.271-.552-2.219-1.5t-1.5-2.219Q3 11.458 3 10q0-1.458.552-2.729.552-1.271 1.5-2.219t2.219-1.5Q8.542 3 10 3q1.688 0 3.115.729 1.427.729 2.385 1.979V3H17v5h-5V6.5h2.229q-.75-.938-1.844-1.469Q11.292 4.5 10 4.5q-2.271 0-3.885 1.615Q4.5 7.729 4.5 10t1.615 3.885Q7.729 15.5 10 15.5t3.885-1.615Q15.5 12.271 15.5 10H17q0 2.917-2.042 4.958Q12.917 17 10 17Zm2.083-4.167L9.25 10V6h1.5v3.375l2.396 2.396Z"/></svg>